<svg xmlns="http://www.w3.org/2000/svg" width="378" height="216.005" viewBox="0 0 378 216.005">
  <g id="그룹_32" data-name="그룹 32" transform="translate(-27.988 -59.534)">
    <path id="패스_11" data-name="패스 11" d="M46.23,173.487v19.685q0,3.689,3.847,5.15t13.533,1.454h1.908c2.818,0,4.91-.577,6.258-1.737s2.311-3.205,2.895-6.147l.136-.7h3.48l-1.376,12.554q-8.664-.491-12.892-.487-4.492,0-10.587-.306c-3.976-.174-6.371-.271-7.189-.271H28.583v-2.237H29.4c3.016,0,5.035-.51,6.064-1.512S37,195.914,37,192.908v-38.18c0-3.151-.467-5.19-1.426-6.133-.95-.926-3.009-1.4-6.178-1.4h-.813v-2.25H75.129l1.374,10.7H73.02l-.135-.776c-.575-3.229-1.72-5.213-3.435-5.932s-6.195-1.082-13.442-1.082H46.23v23.387H56.752q7.283,0,9.309-1.022c1.349-.691,2.026-2.248,2.026-4.686V164.9h3.559V179.83H68.087v-.56c0-2.17-.565-3.726-1.683-4.673q-1.371-1.109-9.651-1.11Z" transform="translate(0.394 56.52)" fill="#fff"/>
    <path id="패스_12" data-name="패스 12" d="M81.974,178.079l-8.667,11.207q-2.413,3.121-2.418,3.991c0,.906,1.253,1.351,3.759,1.351H75.2v1.584H61.7v-1.584h.492a6.415,6.415,0,0,0,3.709-1.162,20.857,20.857,0,0,0,4.066-4.236L80.35,175.968,70,162.357q-4.013-5.277-6.4-5.284h-.552V155.5h16.93v1.577h-.716c-2.245,0-3.36.548-3.36,1.65,0,.818.607,2.044,1.823,3.7l6.4,8.669,6.575-8.669c1.868-2.609,2.807-4.079,2.807-4.437,0-.6-.786-.909-2.346-.909H90.7V155.5h10.972v1.577h-.685q-2.8,0-6.918,5.372l-8.35,10.8,11.866,16.069c2.632,3.536,4.942,5.309,6.951,5.309h.552v1.584H88.95v-1.584h.42c2.064,0,3.106-.457,3.106-1.373,0-.653-.7-1.927-2.092-3.84Z" transform="translate(22.308 63.499)" fill="#fff"/>
    <path id="패스_13" data-name="패스 13" d="M99.059,190.707q-4.626-5.608-4.623-14.379,0-8.724,4.636-14.357a15.269,15.269,0,0,1,23.676,0q4.644,5.641,4.644,14.357,0,8.769-4.644,14.379a15.307,15.307,0,0,1-23.689,0m29.233,1.142a19.914,19.914,0,0,0,6.763-15.53,21.732,21.732,0,0,0-8.448-16.941q-6.1-4.611-15.69-4.611-10.616,0-17.378,6.045a21.176,21.176,0,0,0,0,31.037q6.755,6.057,17.378,6.059,10.6,0,17.375-6.059" transform="translate(38.897 63.016)" fill="#fff"/>
    <path id="패스_14" data-name="패스 14" d="M128.788,157.086h2.753q6.887,0,10.017,1.834a6.333,6.333,0,0,1,3.129,5.894,10.1,10.1,0,0,1-2.28,6.668,11.7,11.7,0,0,1-6.413,3.765h-7.207Zm6.374,19.746,14.412,19.382h9.792v-1.587h-.392a4.823,4.823,0,0,1-3.2-1.3,44.1,44.1,0,0,1-4.759-5.6l-3.367-4.434a66.158,66.158,0,0,0-4.606-5.379,13.74,13.74,0,0,0-3.39-2.235c3.973-1.15,6.938-2.717,8.917-4.7a9.86,9.86,0,0,0,2.963-7.232,6.563,6.563,0,0,0-3.709-6.391q-3.694-1.864-12.694-1.866H116.137v1.594h.48q3.447,0,4.495,1.01c.7.681,1.059,2.112,1.059,4.3v26.928c0,2.19-.357,3.621-1.059,4.3s-2.2,1.01-4.495,1.01h-.48v1.587h18.45v-1.587h-.292c-2.263,0-3.745-.334-4.452-1.022s-1.055-2.114-1.055-4.284v-12.49Z" transform="translate(58.329 63.496)" fill="#fff"/>
    <path id="패스_15" data-name="패스 15" d="M159.837,157.076a43.394,43.394,0,0,1,11.639,1.2,18.435,18.435,0,0,1,7.5,4.345,17.722,17.722,0,0,1,5.748,13.525q0,8.31-4.779,13.257t-12.779,4.944q-10.758,0-10.756-5.03V157.076Zm2.637,39.138q9.345,0,14.211-1.314a19.31,19.31,0,0,0,8.514-4.774,21.225,21.225,0,0,0,6.84-15.874q0-9.681-7.554-14.4a29.912,29.912,0,0,0-8.458-3.368,82.293,82.293,0,0,0-13.553-.987H143.768v1.584h.646c2.207,0,3.653.336,4.35,1.007s1.034,2.112,1.034,4.31v26.925q0,3.275-1.034,4.3c-.7.676-2.144,1.014-4.35,1.014h-.646v1.584Z" transform="translate(76.613 63.496)" fill="#fff"/>
    <path id="패스_16" data-name="패스 16" d="M193.275,196.211H174.591v-1.584h.518c2.268,0,3.764-.337,4.462-1.014s1.055-2.115,1.055-4.3V162.394q0-3.283-1.055-4.3c-.7-.676-2.193-1.007-4.462-1.007h-.518V155.5h18.684v1.587H192.8c-2.273,0-3.765.331-4.482,1.007s-1.075,2.115-1.075,4.3v26.921c0,2.174.354,3.606,1.075,4.287s2.208,1.025,4.482,1.025h.479Z" transform="translate(97.009 63.499)" fill="#fff"/>
    <path id="패스_17" data-name="패스 17" d="M188.019,157.073V155.5h18.686v1.577h-.515c-2.258,0-3.742.347-4.448,1.017s-1.068,2.115-1.068,4.3v18.3q0,8.4,3.573,11.758,3.577,3.395,9.8,3.395,5.611,0,8.731-3.209,3.136-3.208,3.194-10.651v-19.59q0-3.278-1.053-4.3c-.7-.67-2.2-1.017-4.5-1.017h-.48V155.5h16.13v1.577h-.424c-2.295,0-3.8.347-4.522,1.017s-1.09,2.115-1.09,4.3v17.4q0,6.378-.887,9.056a10.412,10.412,0,0,1-3.747,4.877q-4.8,3.7-13.869,3.7c-5.158,0-9.236-.977-12.262-2.938a9.975,9.975,0,0,1-4.168-4.819c-.7-1.859-1.045-4.859-1.045-8.988V162.391q0-3.278-1.08-4.3c-.721-.67-2.222-1.017-4.5-1.017Z" transform="translate(105.894 63.499)" fill="#fff"/>
    <path id="패스_18" data-name="패스 18" d="M227.125,155.4v37.181c0,3.006.369,4.975,1.12,5.922s2.318,1.419,4.713,1.419h.474V202.1h-16V199.92h.474c2.393,0,3.958-.467,4.7-1.419s1.123-2.916,1.123-5.922V155.363q0-4.529-1.123-5.937t-4.7-1.411h-.474v-2.2H229.6l19.99,40.572,18.423-40.572h12.572v2.2h-.533c-2.368,0-3.91.474-4.654,1.411s-1.112,2.918-1.112,5.937v35.793q0,5.965,1.112,7.365c.744.932,2.287,1.4,4.654,1.4h.533V202.1h-18.9V199.92h.4q3.634,0,4.761-1.4c.754-.934,1.14-2.914,1.14-5.942V151.666L247.433,196.6Z" transform="translate(125.357 57.096)" fill="#fff"/>
    <path id="패스_19" data-name="패스 19" d="M182.229,70.013a8.015,8.015,0,0,0,2.544,4.241h-.088c.231.12.454.268.681.415a.629.629,0,0,0,.073.045l-.005-.007a13,13,0,0,1,4.9,6.62c2.908,12.513-11.63,16.895-18.477,24.334-3.2,3.794-8.086,7.845-5.648,13.2a7.911,7.911,0,0,0,4.92,4.224,7.58,7.58,0,0,0,6.479-1.245c1.871-1.421,3.274-3.651,2.8-6.037a3.013,3.013,0,0,1-3.043,1.246,3.8,3.8,0,0,1-2.341-1.672,6,6,0,0,1,.638-5.01c4.006-7.526,12.719-12.381,16.491-19.969a13.432,13.432,0,0,0-1.218-12.915,7.712,7.712,0,0,0-5.646-3.219c-.356-1.11-1.155-4.083-.214-5.884.018-.017.02-.037.03-.055a2.316,2.316,0,0,1,3.116-1.231s-.8-2.837-3.063-2.715l2.175-2.233-.941-2.616h-2.719l-.891,2.521,2.117,2.355a.925.925,0,0,1-.136.013s-3.814.5-2.531,5.59" transform="translate(91.026 0)" fill="#fff"/>
    <path id="패스_20" data-name="패스 20" d="M186.649,71.034a9.966,9.966,0,0,0-1.61-.273c3.563,1.883,4.721,5.708,5.183,9.264,1.1,10.075-7.526,16.158-11.855,23.982-.939,2.291-2.253,5.635-.455,7.92a2.62,2.62,0,0,0,2.288.64A2.735,2.735,0,0,0,182,110.8c.284-.276-.208-.691.184-.957a4.1,4.1,0,0,1,1.276,2.075c.525,2.745-1,5.027-2.868,6.8a7.5,7.5,0,0,0,4.45.917,7.838,7.838,0,0,0,6.328-5.376c.2-1.176.279-2.547-.469-3.4a2.916,2.916,0,0,1-1.58,2.2,3.29,3.29,0,0,1-3.495-.67c-1.678-1.974-1.505-4.967-.907-7.373l1.178-3.1c4.706-7.945,10.451-18.428,4.88-27.757a6.905,6.905,0,0,0-4.252-3.1c3.8-3.43,2.263-4.94,2.263-4.94-1.187-1.828-2.923.2-2.923.2,1.592,1.015.784,4.076.587,4.719" transform="translate(98.614 3.848)" fill="#fff"/>
    <path id="패스_21" data-name="패스 21" d="M184.6,71.819a11.411,11.411,0,0,1,5.409,8.071c2.13,10.047-7.662,15.7-13.393,22.551-2.3,2.885-5.191,5.681-4.922,9.566a2.5,2.5,0,0,0,1.437,1.469,2.569,2.569,0,0,0,2.331-.508c.515-.477.6-1.236.874-1.741a4.283,4.283,0,0,1,.786,1.359c.836,2.6-.723,5.269-2.6,7.089l.088.1a8.121,8.121,0,0,0,8.688-.369c1.786-1.512,3.428-3.7,2.626-6.044a2.972,2.972,0,0,1-1.971,1.421,3.616,3.616,0,0,1-3.485-1.173c-1.161-1.439-1.034-3.554-.7-5.352,1.68-6.4,7.35-10.956,10.685-16.607,2.622-4.733,3.375-11.2.613-16.075a7.537,7.537,0,0,0-5.54-3.684c5.786-4.764,3.639-7.177,3.639-7.177-2.027-2.969-4.452.2-4.452.2,2.325,1.62.994,6.009.661,6.969a7.284,7.284,0,0,0-.771-.06" transform="translate(95.079 2.584)" fill="#fff"/>
    <path id="패스_22" data-name="패스 22" d="M184.267,75.069c.749,5.058-4,8.277-7.132,11.492-4.116,4.349-6.843,9.528-9.168,14.548,3.943-5,9.419-7.845,14.148-11.67,4.171-3.581,7.481-8.516,5.57-14.07-.922-3.39-4.2-6.788-7.818-7.054l-.161.126c2.62,1.165,4.161,4,4.561,6.627" transform="translate(92.625 5.811)" fill="#fff"/>
    <path id="패스_23" data-name="패스 23" d="M170.276,83.854c2.034.479,2.855-2.655,4.894-1.906a1.861,1.861,0,0,1,1.04,1.913c-.42,1.883-2.552,2.961-4.108,3.739-1.758,1.042-3.887,1.225-5.356,2.851a2.732,2.732,0,0,0-.148,1.564c4.435-1.9,8.832-3.882,13.206-5.924a8.472,8.472,0,0,0,3.563-3.239,8,8,0,0,0-.794-8.651,9.456,9.456,0,0,0-2.446-2.027c-.339-.675-2.278-4.807.352-7.207,0,0-3.018-3.468-4.8.543,0,0-1.2,2.729,4.109,6.486a6.472,6.472,0,0,0-4.069-.68,1.42,1.42,0,0,0-.926.615c-.209-.577-1.21-3.661.352-4.764,0,0-1.825-1.946-2.93-.066,0,0-1.479,1.592,2.549,4.877-.651,1.059.02,2.926-1.82,3.2l-5.976-.135c.018,2.107-.555,4.7.168,6.818a3.827,3.827,0,0,0,3.139,2" transform="translate(91.692 2.674)" fill="#fff"/>
    <path id="패스_24" data-name="패스 24" d="M175.474,77.35c.432.03.419.587.282.821l.15.013a1.159,1.159,0,0,0,.921-1.087c-.166-.608-.975-.73-1.54-.567-2.1.8-4.091,2.218-6.5,1.844a3.217,3.217,0,0,1-1.813-1.667,2.654,2.654,0,0,1,.367-1.991l-.753-.007a3.641,3.641,0,0,0-3.009,2.5,3.779,3.779,0,0,0,1.049,3.779c4.194,2.773,7.187-2.577,10.849-3.644" transform="translate(89.62 10.043)" fill="#fff"/>
    <path id="패스_25" data-name="패스 25" d="M141.751,135.8c-.048.018-.025.005,0,0s.046.018,0,0h0c-.048-.018-.025-.008,0,0" transform="translate(75.26 50.461)" fill="#fff"/>
    <path id="패스_26" data-name="패스 26" d="M272.342,96.414a2.941,2.941,0,0,1,.1-2.75c2.145-2.974,4.626-6.1,3.824-10.135a8.6,8.6,0,0,0-4.995-6.7,10.387,10.387,0,0,0-9.444.442,10.876,10.876,0,0,0-5.3,10.916c1.213,7.074,5.494,13.289,11.359,18.417,2.034,1.981,4.513,3.32,6.231,5.764,1.545,2.456,1.226,6.4-.324,8.766a8.543,8.543,0,0,1-7.961,3.757,27.955,27.955,0,0,1-15.648-10.445,8.429,8.429,0,0,1-8.453-.233l-2.436,1.032a9.276,9.276,0,0,1-7.127-1.343,9.11,9.11,0,0,1-3.43,1.374,8.624,8.624,0,0,1-8.812-4.774c-1.68-3.189-.366-7.285,1.881-9.791a20.337,20.337,0,0,1-4.013,2.783l0-1.057a15.737,15.737,0,0,0,5.484-4.964c3.122-6.045,6.177-12.46,11.981-16.959l-13.224,6.029a11.657,11.657,0,0,0-4.224,3.3v-.513h-2.145c-2.021-2.523-3.947-5-5.876-7.594a5.143,5.143,0,0,0-.5-8.054,5.39,5.39,0,0,0-5.334-.148,6.035,6.035,0,0,1,2.32,3.995c-1.529.449-.929-1.7-2.069-2.311a5.075,5.075,0,0,0-4.428-1.683,4.97,4.97,0,0,0-3.973,3.215,4.523,4.523,0,0,0,.387,3.995l1.371-.708a6.057,6.057,0,0,1,5.947,1.143,1.158,1.158,0,0,1-.273.9c-.718-.307-1.279-1.03-2.092-1.211a5.805,5.805,0,0,0-3.923.367,4.989,4.989,0,0,0-2.521,5.151,5.092,5.092,0,0,0,1.678,2.943h-31.94a5.129,5.129,0,0,0,1.678-2.943,4.99,4.99,0,0,0-2.522-5.151,5.8,5.8,0,0,0-3.92-.367c-.818.181-1.379.9-2.1,1.211a1.159,1.159,0,0,1-.266-.9,6.057,6.057,0,0,1,5.951-1.143l1.371.708a4.549,4.549,0,0,0,.374-3.995,4.965,4.965,0,0,0-3.961-3.215,5.09,5.09,0,0,0-4.434,1.683c-1.135.611-.543,2.76-2.072,2.311a6.052,6.052,0,0,1,2.323-3.995,5.4,5.4,0,0,0-5.339.148,5.141,5.141,0,0,0-.492,8.054c-1.933,2.591-3.854,5.072-5.881,7.594h-2.149l0,.513a11.664,11.664,0,0,0-4.222-3.3L125.57,80.513c5.808,4.5,8.857,10.914,11.979,16.959a15.732,15.732,0,0,0,5.487,4.964l0,1.057a20.215,20.215,0,0,1-4.016-2.783c2.247,2.506,3.558,6.6,1.879,9.791a8.623,8.623,0,0,1-8.812,4.774,9.127,9.127,0,0,1-3.426-1.374,9.278,9.278,0,0,1-7.124,1.343l-2.441-1.032a8.432,8.432,0,0,1-8.455.233,27.948,27.948,0,0,1-15.65,10.445,8.53,8.53,0,0,1-7.955-3.757c-1.554-2.363-1.866-6.31-.327-8.766,1.717-2.444,4.194-3.784,6.235-5.764,5.864-5.128,10.138-11.343,11.356-18.417a10.88,10.88,0,0,0-5.294-10.916,10.4,10.4,0,0,0-9.449-.442,8.605,8.605,0,0,0-4.993,6.7c-.8,4.04,1.678,7.16,3.832,10.135a2.94,2.94,0,0,1,.095,2.75,3.4,3.4,0,0,1-1.879,1.436,3.156,3.156,0,0,1-2.361-.66,3.918,3.918,0,0,1-.932-1.457,6.125,6.125,0,0,0,2.458,5.517,6.513,6.513,0,0,0,5.341,1,6.184,6.184,0,0,0,4.191-4.133c1.946-6.293-5.71-8.9-6.7-14.2a5.187,5.187,0,0,1,2.316-4.679c1.515-1.3,4.108-1.195,5.889-.512a8.8,8.8,0,0,1,5.269,6.537c.487,7.036-3.789,12.7-8.363,17.782-3.769,4.271-11,7.077-10.273,13.8A10.691,10.691,0,0,0,94.637,127.2c-.685,6.211,1.655,12.052,4.334,17.4a2.491,2.491,0,0,1,.012,1.991,2.32,2.32,0,0,1-1.923,1.067,2.5,2.5,0,0,0-1.936.141c-.713.3-.859,1.063-1.065,1.693.417,6.014.721,12.283.936,18.478a5.052,5.052,0,0,0-2.162,3.955,5.211,5.211,0,0,0,1.544,3.682,4.979,4.979,0,0,0,5.088,1.03,4.83,4.83,0,0,0,3.048-4.094,6.588,6.588,0,0,0-.786-3.259,1.1,1.1,0,0,1,1.54.9,5.988,5.988,0,0,1-2.094,6.66,4.887,4.887,0,0,0,4.847.874,4.817,4.817,0,0,0,3.011-3.639,5.393,5.393,0,0,0-1.527-4.651c-.391-.435-1.484-.475-1.108-1.3a1.693,1.693,0,0,1,.293-.4,6.163,6.163,0,0,1,3.044,3.313,4.838,4.838,0,0,0,1.142-4.91c-.578-1.522-2.057-3.227-3.873-3.282a5.646,5.646,0,0,0-3.255.565,3.545,3.545,0,0,1-.183-2.4c1.133-4.643,5.284-8.751,9-11.949,4.138-5.271-2.923-11.006.392-16.562,3.923-5.426,10.971-4.518,16.062-7.68a30.846,30.846,0,0,0,9.48-8.348c1.534-.1,3.049-.153,4.555-.211l.028,12.77v5.238c.065,7.2,1.025,12.971,3.044,17.835a5.1,5.1,0,0,0-1.042-.764,5.412,5.412,0,0,0-5.063.356,6.092,6.092,0,0,0-1.934,2.521,4.019,4.019,0,0,1-2.3-1.4c-3.885-4.315-2.235-10.783-3.98-15.874-2.2-3.112-6.225-3.313-9.4-4.754-1.432-.618-3.146-1.336-3.965-2.835-2.042.876-4.473,2.409-5.161,4.781-.876,3.385,1.044,6.386,1.4,9.683,2.067,1.459,4.824,1.2,6.926,2.579a2,2,0,0,1,.359,2.075c-.826,1.054-2.413,2.059-1.723,3.654l.723.823,15.03,11.2a5.054,5.054,0,0,0,2.654,4.9,5.161,5.161,0,0,0,3.832.307,5.108,5.108,0,0,0,3.237-3.418,5.055,5.055,0,0,0-1.432-4.741,5.293,5.293,0,0,0-2.762-1.311c-.045-.277.249-.608.482-.837a5.926,5.926,0,0,1,4.189,3.129,5.484,5.484,0,0,1,.6,2.8,4.6,4.6,0,0,0,3.8-2.76,4.347,4.347,0,0,0,.377-2.205c5.868,6.856,15.554,11.73,29.449,17.4,13.89-5.67,23.578-10.544,29.442-17.4a4.383,4.383,0,0,0,.379,2.205,4.6,4.6,0,0,0,3.8,2.76,5.521,5.521,0,0,1,.61-2.8,5.911,5.911,0,0,1,4.182-3.129c.233.229.53.56.49.837a5.306,5.306,0,0,0-2.77,1.311,4.814,4.814,0,0,0,1.81,8.159,5.142,5.142,0,0,0,3.825-.307,5.053,5.053,0,0,0,2.655-4.9l15.033-11.2.721-.823c.685-1.6-.9-2.6-1.728-3.654a2,2,0,0,1,.366-2.075c2.1-1.378,4.849-1.12,6.928-2.579.356-3.3,2.268-6.3,1.392-9.683-.686-2.371-3.117-3.905-5.165-4.781-.816,1.5-2.531,2.217-3.957,2.835-3.182,1.441-7.214,1.642-9.405,4.754-1.743,5.091-.093,11.559-3.973,15.874a4.045,4.045,0,0,1-2.295,1.4,6.284,6.284,0,0,0-1.943-2.521,5.43,5.43,0,0,0-5.072-.356,5.163,5.163,0,0,0-1.037.764c2.016-4.864,2.983-10.637,3.046-17.835v-5.238l.025-12.77c1.5.058,3.018.111,4.556.211a30.86,30.86,0,0,0,9.478,8.348c5.095,3.162,12.144,2.255,16.064,7.68,3.318,5.557-3.737,11.291.387,16.562,3.726,3.2,7.878,7.307,9.007,11.949a3.554,3.554,0,0,1-.18,2.4,5.644,5.644,0,0,0-3.257-.565c-1.811.055-3.292,1.76-3.874,3.282a4.84,4.84,0,0,0,1.145,4.91,6.157,6.157,0,0,1,3.038-3.313,1.468,1.468,0,0,1,.3.4c.376.829-.713.869-1.107,1.3a5.394,5.394,0,0,0-1.529,4.651,4.817,4.817,0,0,0,3.011,3.639,4.894,4.894,0,0,0,4.852-.874,5.98,5.98,0,0,1-2.094-6.66,1.1,1.1,0,0,1,1.539-.9,6.551,6.551,0,0,0-.786,3.259,4.819,4.819,0,0,0,3.051,4.094,4.963,4.963,0,0,0,5.078-1.03A5.193,5.193,0,0,0,268,171.923a5.033,5.033,0,0,0-2.162-3.955c.223-6.195.52-12.465.936-18.478-.2-.63-.351-1.394-1.059-1.693a2.508,2.508,0,0,0-1.939-.141,2.329,2.329,0,0,1-1.923-1.067,2.506,2.506,0,0,1,.013-1.991c2.675-5.347,5.017-11.188,4.329-17.4a10.71,10.71,0,0,0,11.2-10.356c.72-6.725-6.517-9.532-10.283-13.8-4.575-5.083-8.85-10.746-8.362-17.782a8.787,8.787,0,0,1,5.271-6.537c1.778-.683,4.375-.786,5.892.512a5.161,5.161,0,0,1,2.306,4.679c-.984,5.3-8.639,7.908-6.692,14.2a6.182,6.182,0,0,0,4.189,4.133,6.506,6.506,0,0,0,5.337-1,6.148,6.148,0,0,0,2.468-5.517,3.9,3.9,0,0,1-.94,1.457,3.15,3.15,0,0,1-2.36.66,3.421,3.421,0,0,1-1.883-1.436m-69.506,16.117c-.666.731-1.341,1.439-2.009,2.112a8.623,8.623,0,0,1-4.7,1.768c-.615,0-2.07-.769-4.364-2.326a39.51,39.51,0,0,0-9.394-4.322c-.852,1.053-1.735,2.252-2.66,3.581a7.042,7.042,0,0,0-1.411,4.028,7.975,7.975,0,0,0,.931,3.6,13.937,13.937,0,0,0,3.1,3.868,14.03,14.03,0,0,1,3.229,4.188,9.651,9.651,0,0,1,1.045,4.191q0,5.2-4.792,9.6t-5.791,3.141a12.388,12.388,0,0,0,2.491-3.272,9.078,9.078,0,0,0,1.11-4.443,11.257,11.257,0,0,0-.793-4.065,18.218,18.218,0,0,0-2.868-4.651,18.215,18.215,0,0,1-2.539-4.236,10.446,10.446,0,0,1-.784-3.9q0-4.776,4.537-8.554c2.906-2.411,4.588-3.421,5.121-3.106a.08.08,0,0,0-.043-.015,35.421,35.421,0,0,0-11.2-2.034q-6.54,0-10.484,2.842a8.814,8.814,0,0,0-3.942,7.466,12.677,12.677,0,0,0,2.117,6.625,27.8,27.8,0,0,0,6.612,6.958c.452.392-.283,1.5-2.194,3.31s-3.42,2.39-4.541,1.718a17.5,17.5,0,0,1-5.813-5.575,12.567,12.567,0,0,1-1.859-6.66q0-8.141,8.594-14.889a31.343,31.343,0,0,1,19.907-6.752,32.767,32.767,0,0,1,12.16,2.326,34.772,34.772,0,0,1,11.23,7.476M186.6,131.4c1.06-1.27,2.145-2.582,3.259-3.917q4.013-3.333,5.264-2.916a13.335,13.335,0,0,1,4.306,1.954,2.81,2.81,0,0,1,1.291,2.042q0,1.505-2.594,2.968c-1.722.975-2.725,1.321-3,1.039a9.837,9.837,0,0,0-2.549-2.041,4.91,4.91,0,0,0-2.213-.625,4.176,4.176,0,0,0-2.373.836c-.816.555-1.275.774-1.388.66m15.356,22.952a24.339,24.339,0,0,1-15.132,4.852,14.543,14.543,0,0,1-4.9-.741,82.648,82.648,0,0,1-8.309-4.151q-6.239-3.4-9.266-3.4a9.307,9.307,0,0,0-2.763.439l2.012-2.491a11.952,11.952,0,0,1,7.8-2.757,17.515,17.515,0,0,1,5.912,1.1,22.934,22.934,0,0,1,6.075,3.352,19.6,19.6,0,0,0,5.457,3.056,15.393,15.393,0,0,0,4.862.8,18.335,18.335,0,0,0,9.427-2.7c3.044-1.8,4.508-2.842,4.409-3.126q.828.922-5.583,5.769m-19.57-44.612c-.02-.02-.071.007-.095-.007a.771.771,0,0,1,.08.028c.005-.008.005-.015.015-.022" transform="translate(36.588 8.844)" fill="#fff"/>
    <path id="패스_27" data-name="패스 27" d="M106.295,67.1a2.312,2.312,0,0,1,3.112,1.231.423.423,0,0,1,.033.058c.942,1.8.14,4.771-.219,5.884a7.717,7.717,0,0,0-5.65,3.215,13.459,13.459,0,0,0-1.208,12.921c3.775,7.581,12.486,12.44,16.5,19.962a5.989,5.989,0,0,1,.626,5.01,3.755,3.755,0,0,1-2.341,1.672A3,3,0,0,1,114.1,115.8c-.474,2.391.929,4.621,2.795,6.042a7.561,7.561,0,0,0,6.476,1.24,7.92,7.92,0,0,0,4.935-4.219c2.434-5.357-2.459-9.409-5.663-13.2-6.845-7.443-21.371-11.821-18.47-24.334a12.985,12.985,0,0,1,4.9-6.617v0a.875.875,0,0,0,.076-.052c.221-.141.445-.289.673-.409a.385.385,0,0,1-.09,0,7.994,7.994,0,0,0,2.546-4.242c1.283-5.1-2.517-5.588-2.517-5.588a1.224,1.224,0,0,1-.143-.015l2.112-2.355-.884-2.521h-2.722l-.939,2.616,2.178,2.227c-2.267-.115-3.069,2.722-3.069,2.722" transform="translate(48.478 0)" fill="#fff"/>
    <path id="패스_28" data-name="패스 28" d="M105.029,105.013c.59,2.406.774,5.4-.909,7.373a3.289,3.289,0,0,1-3.5.666,2.924,2.924,0,0,1-1.577-2.2c-.748.859-.663,2.227-.47,3.4a7.839,7.839,0,0,0,6.331,5.376,7.5,7.5,0,0,0,4.447-.917c-1.863-1.771-3.383-4.046-2.866-6.793a4.127,4.127,0,0,1,1.279-2.085c.386.274-.095.683.184.959a2.737,2.737,0,0,0,1.795,1.771,2.618,2.618,0,0,0,2.292-.641c1.791-2.283.484-5.627-.462-7.918C107.249,96.177,98.623,90.1,99.72,80.025c.464-3.556,1.632-7.385,5.186-9.261a9.24,9.24,0,0,0-1.613.269c-.188-.645-1-3.7.585-4.719,0,0-1.733-2.031-2.918-.2,0,0-1.542,1.505,2.258,4.94a6.878,6.878,0,0,0-4.241,3.1c-5.575,9.329.168,19.813,4.874,27.754Z" transform="translate(45.455 3.848)" fill="#fff"/>
    <path id="패스_29" data-name="패스 29" d="M106.366,71.887a7.564,7.564,0,0,0-5.54,3.684c-2.76,4.879-2,11.343.62,16.075,3.33,5.651,9.006,10.21,10.678,16.6.329,1.808.467,3.917-.7,5.356a3.611,3.611,0,0,1-3.476,1.173,2.981,2.981,0,0,1-1.977-1.421c-.8,2.341.841,4.531,2.627,6.044a8.123,8.123,0,0,0,8.689.369l.093-.1c-1.893-1.82-3.445-4.492-2.6-7.089a4.141,4.141,0,0,1,.786-1.366,5.274,5.274,0,0,0,.872,1.748,2.56,2.56,0,0,0,2.33.508,2.512,2.512,0,0,0,1.436-1.469c.274-3.885-2.619-6.678-4.922-9.558-5.725-6.861-15.525-12.513-13.388-22.559a11.388,11.388,0,0,1,5.4-8.071,7.739,7.739,0,0,0-.776.06c-.329-.96-1.657-5.349.668-6.969,0,0-2.423-3.169-4.452-.2,0,0-2.15,2.413,3.636,7.177" transform="translate(47.046 2.584)" fill="#fff"/>
    <path id="패스_30" data-name="패스 30" d="M103.866,75.37c-1.919,5.557,1.4,10.492,5.57,14.073,4.729,3.822,10.208,6.665,14.151,11.664-2.331-5.012-5.05-10.193-9.178-14.538-3.127-3.222-7.875-6.441-7.129-11.5.4-2.63,1.943-5.462,4.563-6.632l-.164-.121c-3.613.269-6.893,3.664-7.813,7.054" transform="translate(49.84 5.811)" fill="#fff"/>
    <path id="패스_31" data-name="패스 31" d="M110.4,72.177a9.27,9.27,0,0,0-2.448,2.024,7.98,7.98,0,0,0-.791,8.644,8.461,8.461,0,0,0,3.559,3.245c4.375,2.042,8.77,4.028,13.206,5.924a2.6,2.6,0,0,0-.153-1.564c-1.459-1.624-3.589-1.816-5.344-2.851-1.569-.776-3.694-1.863-4.109-3.739a1.833,1.833,0,0,1,1.037-1.906c2.041-.753,2.855,2.378,4.9,1.9a3.825,3.825,0,0,0,3.137-2c.731-2.109.151-4.713.171-6.815l-5.98.141c-1.834-.276-1.167-2.142-1.816-3.2,4.031-3.29,2.541-4.874,2.541-4.874-1.092-1.879-2.92.061-2.92.061,1.56,1.1.558,4.184.357,4.764a1.426,1.426,0,0,0-.936-.608,6.366,6.366,0,0,0-4.07.673c5.316-3.762,4.109-6.486,4.109-6.486-1.783-4.008-4.8-.547-4.8-.547,2.632,2.4.695,6.539.354,7.213" transform="translate(51.789 2.674)" fill="#fff"/>
    <path id="패스_32" data-name="패스 32" d="M113.523,76.53c-.557-.163-1.371-.038-1.537.567a1.154,1.154,0,0,0,.916,1.087l.153-.015c-.136-.233-.153-.793.279-.819,3.666,1.072,6.658,6.418,10.856,3.638a3.778,3.778,0,0,0,1.045-3.775,3.641,3.641,0,0,0-3-2.5l-.753.012a2.663,2.663,0,0,1,.361,1.991,3.185,3.185,0,0,1-1.813,1.653c-2.408.382-4.409-1.037-6.506-1.838" transform="translate(55.582 10.043)" fill="#fff"/>
    <rect id="사각형_4" data-name="사각형 4" width="378" height="4.356" transform="translate(27.988 186.26)" fill="#fff"/>
    <rect id="사각형_5" data-name="사각형 5" width="378" height="4.356" transform="translate(27.988 271.183)" fill="#fff"/>
  </g>
</svg>
