<svg xmlns="http://www.w3.org/2000/svg" width="21.332" height="19.555" viewBox="0 0 21.332 19.555">
  <g id="그룹_63" data-name="그룹 63" transform="translate(-1143.702 -278.383)">
    <g id="그룹_62" data-name="그룹 62" transform="translate(1137.702 278.383)">
      <path id="패스_18" data-name="패스 18" d="M1137.7,278.406c.015,6.5.005,13.009.005,19.512,2.436.014,4.875.01,7.309,0,.037-3.225-.045-6.452.043-9.677.8,1.116,1.529,2.282,2.344,3.387,1.364,2.118,2.907,4.119,4.218,6.269,2.453.065,4.905,0,7.359.038.026-.305.053-.61.053-.916-.036-6.208.029-12.416-.034-18.623-2.427-.019-4.851,0-7.276-.01-.019,3.243.019,6.487-.021,9.727-2.254-3.206-4.383-6.507-6.69-9.673C1142.583,278.332,1140.138,278.409,1137.7,278.406Z" transform="translate(-1131.702 -278.383)" fill="#50aa34"/>
    </g>
  </g>
</svg>
