<?xml version="1.0" encoding="utf-8"?>
<!-- Generator: Adobe Illustrator 21.0.0, SVG Export Plug-In . SVG Version: 6.00 Build 0)  -->
<svg version="1.1" id="Layer_1" xmlns="http://www.w3.org/2000/svg" xmlns:xlink="http://www.w3.org/1999/xlink" x="0px" y="0px"
	 viewBox="0 0 25 25" style="enable-background:new 0 0 25 25;" xml:space="preserve">
<style type="text/css">
	.st0{fill:#005AAA;}
</style>
<g>
	<path class="st0" d="M23.9,11.4c-0.6,0-1.1,0.5-1.1,1.1c0,0.4,0,0.8-0.1,1.2c-0.6,5.2-5,9.1-10.3,9.1c-5.7,0-10.3-4.6-10.3-10.3
		S6.8,2.2,12.5,2.2c3.1,0,6,1.4,7.9,3.7l-7.9,7.9L8,10.1c-0.5-0.4-1.1-0.3-1.5,0.1c-0.4,0.5-0.3,1.1,0.1,1.5l5.2,4.4
		c0.4,0.4,1.1,0.3,1.5-0.1l8.9-8.9c0.7-0.7,0.6-1.8,0.1-2.4c-2.4-3-5.9-4.7-9.8-4.7C5.6,0,0,5.6,0,12.5C0,19.4,5.6,25,12.5,25
		c6.3,0,11.7-4.7,12.4-11c0.1-0.5,0.1-1,0.1-1.5C25,11.9,24.5,11.4,23.9,11.4"/>
</g>
</svg>
