<svg xmlns="http://www.w3.org/2000/svg" width="184.67" height="64.007" viewBox="0 0 184.67 64.007">
  <g id="그룹_167" data-name="그룹 167" transform="translate(-357.601 -390.017)">
    <g id="그룹_35" data-name="그룹 35" transform="translate(357.601 390.017)">
      <path id="패스_3" data-name="패스 3" d="M371.158,390.017a7.576,7.576,0,1,0,7.575,7.576A7.584,7.584,0,0,0,371.158,390.017Z" transform="translate(-357.393 -390.017)" fill="#fff"/>
      <path id="패스_4" data-name="패스 4" d="M357.6,421.422h7.753V451.6h12.023V413.627H357.6Z" transform="translate(-357.601 -389.196)" fill="#fff"/>
      <path id="패스_5" data-name="패스 5" d="M504.174,412.046c-6.414-5.331-17.533-5.865-32.729-1.675V451.81h12.616V416.526c1.052-.271,7.031-1.654,10.552,1.033,1.764,1.346,2.658,3.555,2.658,6.478V451.81h12.6V425.171C509.876,425.092,510.379,417.2,504.174,412.046Z" transform="translate(-353.641 -389.406)" fill="#fff"/>
      <path id="패스_6" data-name="패스 6" d="M450.151,408.661h0c-5.83-1.055-13.149-.233-21.093,2.132l2.426,7.342s7.958-3.039,15.016-1.8c6.41,1.127,5.633,5.726,5.633,7.754-1.409.083-10.214.685-17.063,3.114-6.419,2.276-9.463,6.623-9.05,12.917.685,10.412,12.071,12.608,16.937,13.036,13.4,1.181,21.164-2.491,21.164-2.491v-22.7C464.117,415.858,460.2,410.447,450.151,408.661Zm1.967,36.689c-1.026.221-6.677,1.314-10.693-.573a5.916,5.916,0,0,1-3.353-5.067,6.276,6.276,0,0,1,3.35-6.028c2.772-1.491,7.373-1.947,10.7-2.013Z" transform="translate(-355.223 -389.384)" fill="#fff"/>
      <path id="패스_7" data-name="패스 7" d="M407.088,408.661h0c-5.83-1.055-13.149-.233-21.093,2.132l2.426,7.342s7.957-3.039,15.016-1.8c6.412,1.127,5.633,5.726,5.633,7.754-1.409.083-10.214.685-17.063,3.114-6.419,2.276-9.463,6.623-9.05,12.917.685,10.412,12.071,12.608,16.937,13.036,13.4,1.181,21.164-2.491,21.164-2.491v-22.7C421.054,415.858,417.137,410.447,407.088,408.661Zm1.967,36.689c-1.026.221-6.677,1.314-10.693-.573a5.916,5.916,0,0,1-3.353-5.067,6.275,6.275,0,0,1,3.351-6.028c2.771-1.491,7.372-1.947,10.7-2.013Z" transform="translate(-356.721 -389.384)" fill="#fff"/>
    </g>
    <path id="패스_8" data-name="패스 8" d="M513.752,393.374H386.564a1.518,1.518,0,0,0-1.518,1.517v4.6a1.518,1.518,0,0,0,1.518,1.518H518.731a6.935,6.935,0,0,1,6.936,6.935v45.04h15.649V414.654a11.7,11.7,0,0,0-5-9.6l-11.97-8.354A18.5,18.5,0,0,0,513.752,393.374Z" transform="translate(0.955 0.117)" fill="#fff"/>
  </g>
</svg>
