<svg xmlns="http://www.w3.org/2000/svg" width="21.276" height="21.277" viewBox="0 0 21.276 21.277">
  <g id="그룹_61" data-name="그룹 61" transform="translate(-301.072 -129.913)">
    <path id="사각형_14" data-name="사각형 14" d="M3.1,0H18.173a3.1,3.1,0,0,1,3.1,3.1V18.178a3.1,3.1,0,0,1-3.1,3.1H3.1a3.1,3.1,0,0,1-3.1-3.1V3.1A3.1,3.1,0,0,1,3.1,0Z" transform="translate(301.072 129.913)" fill="#2a4c88"/>
    <path id="패스_17" data-name="패스 17" d="M329.845,156.461v-8.24h2.766l.414-3.211h-3.179v-2.05c0-.93.258-1.564,1.591-1.564h1.7v-2.872a22.759,22.759,0,0,0-2.479-.127,3.869,3.869,0,0,0-4.13,4.245v2.368h-2.773v3.211h2.773v8.24Z" transform="translate(-14.093 -5.271)" fill="#fff"/>
  </g>
</svg>
