<svg xmlns="http://www.w3.org/2000/svg" width="21.276" height="19.648" viewBox="0 0 21.276 19.648">
  <g id="그룹_60" data-name="그룹 60" transform="translate(-55.907 -134.289)">
    <path id="패스_12" data-name="패스 12" d="M70.36,139.027c-5.875,0-10.637,3.761-10.637,8.4,0,2.985,1.974,5.6,4.937,7.095l-1,3.743a.31.31,0,0,0,.076.319.3.3,0,0,0,.217.09.309.309,0,0,0,.184-.072l4.312-2.911a13.418,13.418,0,0,0,1.915.14c5.874,0,10.638-3.761,10.638-8.4s-4.764-8.4-10.638-8.4" transform="translate(-3.816 -4.738)" fill="#2b1718"/>
    <path id="패스_13" data-name="패스 13" d="M65.5,152.428H64.341a.759.759,0,0,1-.411-.11.451.451,0,0,1-.212-.31c-.006-.036-.013-.076-.017-.119a.466.466,0,0,1,.181-.393.719.719,0,0,1,.455-.143h3.54a.754.754,0,0,1,.41.109.457.457,0,0,1,.215.311.6.6,0,0,1,.008.116.484.484,0,0,1-.177.4.712.712,0,0,1-.452.14H66.723v3.989a.641.641,0,0,1-.168.461.586.586,0,0,1-.449.175.625.625,0,0,1-.392-.126.58.58,0,0,1-.206-.347.67.67,0,0,1-.011-.163Z" transform="translate(-5.858 -11.068)" fill="#ffdf00"/>
    <path id="패스_14" data-name="패스 14" d="M72.4,151.537a.546.546,0,0,1,.223-.3.7.7,0,0,1,.375-.09H73.3a.77.77,0,0,1,.4.1.64.64,0,0,1,.253.37l1.479,4.286a2.467,2.467,0,0,1,.1.341,1.445,1.445,0,0,1,.022.147.54.54,0,0,1-.173.4.554.554,0,0,1-.407.162.523.523,0,0,1-.55-.349l-.317-.933H72.131l-.318.933a.512.512,0,0,1-.549.349.569.569,0,0,1-.361-.111.512.512,0,0,1-.188-.317.6.6,0,0,1-.011-.13.687.687,0,0,1,.033-.225c.023-.088.052-.177.083-.263Zm.741.994h-.016l-.722,2.249H73.84Z" transform="translate(-9.454 -10.963)" fill="#ffdf00"/>
    <path id="패스_15" data-name="패스 15" d="M81.054,151.783a.642.642,0,0,1,.168-.462.59.59,0,0,1,.449-.174.6.6,0,0,1,.393.127.613.613,0,0,1,.215.508v3.991h2.047a.736.736,0,0,1,.414.108.469.469,0,0,1,.208.312.818.818,0,0,1,.018.117.473.473,0,0,1-.181.4.727.727,0,0,1-.456.14H81.771a.8.8,0,0,1-.461-.118.555.555,0,0,1-.232-.378,1.8,1.8,0,0,1-.027-.25Z" transform="translate(-14.769 -10.963)" fill="#ffdf00"/>
    <path id="패스_16" data-name="패스 16" d="M89.346,151.783a.65.65,0,0,1,.166-.462.592.592,0,0,1,.449-.174.6.6,0,0,1,.392.127.565.565,0,0,1,.206.346.579.579,0,0,1,.012.162l0,1.855,1.923-2.212a1.366,1.366,0,0,1,.233-.211.454.454,0,0,1,.255-.068.627.627,0,0,1,.366.113.456.456,0,0,1,.2.3s0,.022.009.047a.217.217,0,0,0,0,.052.479.479,0,0,1-.056.233,1.133,1.133,0,0,1-.146.205l-1.258,1.374L93.6,155.83l.045.071a1.273,1.273,0,0,1,.176.355c0,.005,0,.02.009.038a.25.25,0,0,0,0,.04.559.559,0,0,1-.184.47.71.71,0,0,1-.446.143.621.621,0,0,1-.305-.066.81.81,0,0,1-.24-.267l-1.412-2.272-.673.7.007,1.268a.65.65,0,0,1-.169.461.59.59,0,0,1-.449.175.627.627,0,0,1-.393-.126.58.58,0,0,1-.206-.347.782.782,0,0,1-.011-.163Z" transform="translate(-19.028 -10.963)" fill="#ffdf00"/>
  </g>
</svg>
